<svg version="1.1" id="Layer_1" xmlns="http://www.w3.org/2000/svg" xmlns:xlink="http://www.w3.org/1999/xlink" x="0px" y="0px"
	 width="100%" viewBox="0 0 384 384" enable-background="new 0 0 384 384" xml:space="preserve">
<path fill="#000000" opacity="1.000000" stroke="none" 
	d="
M1.000000,368.000000 
	C1.000000,264.645233 1.000000,161.290466 1.236389,57.706451 
	C4.514287,60.092991 7.418960,62.710064 7.952253,67.112892 
	C8.750591,73.703918 12.173984,79.333176 14.987124,85.177185 
	C16.747936,88.835091 19.460299,90.363731 23.508116,89.366348 
	C28.560143,88.121521 33.739635,87.678314 38.890076,88.000206 
	C50.268345,88.711357 58.393173,83.813492 64.036537,74.217293 
	C64.542450,73.357010 65.154877,72.559654 65.666954,71.702675 
	C73.956245,57.830257 79.927826,42.780491 87.615616,28.571594 
	C93.719955,17.289310 91.412506,9.180210 83.000000,1.000000 
	C183.623062,1.000000 284.246124,1.000000 384.934601,1.000000 
	C384.934601,128.900925 384.934601,256.801880 384.934601,385.000000 
	C278.645416,385.000000 172.290558,385.000000 65.456909,384.735535 
	C64.705170,382.312988 62.624710,382.427032 61.332451,381.530457 
	C58.014870,379.228790 54.046448,377.632568 52.114605,373.732605 
	C53.836529,370.676941 57.699009,372.026947 59.355854,369.776855 
	C59.295879,368.502716 58.546188,367.984406 57.791634,367.735565 
	C46.442791,363.992615 35.541378,359.138123 24.524536,354.559052 
	C21.907326,353.471252 18.580046,353.396545 16.418777,355.455353 
	C11.592569,360.052795 5.932782,363.571075 1.000000,368.000000 
M284.714600,106.941994 
	C266.508606,102.283646 248.278122,97.717514 230.116989,92.890388 
	C226.414291,91.906242 223.884842,92.562134 221.274124,95.333725 
	C215.794510,101.150970 209.931732,106.605904 204.401413,112.377419 
	C201.998398,114.885239 200.195740,114.884163 197.794510,112.398132 
	C192.356369,106.767967 186.608124,101.435417 181.219254,95.760338 
	C178.379196,92.769463 175.556610,91.872093 171.448227,92.957825 
	C152.476059,97.971619 133.441879,102.753815 114.398170,107.491386 
	C110.575119,108.442451 108.507866,110.444855 107.541367,114.346077 
	C102.781975,133.557022 97.864319,152.729538 92.854790,171.876984 
	C91.953728,175.320984 92.453690,177.929214 95.044868,180.437210 
	C100.788765,185.996735 106.257965,191.841827 112.046471,197.352722 
	C114.814240,199.987732 115.069786,201.875473 112.120735,204.629272 
	C106.524162,209.855270 101.372559,215.556534 95.800240,220.810211 
	C92.796394,223.642258 91.881088,226.421173 92.977112,230.552109 
	C98.050255,249.672836 102.901070,268.854095 107.631653,288.062897 
	C108.564949,291.852570 110.681404,293.571045 114.255096,294.473175 
	C133.606323,299.358124 152.935974,304.329681 172.249023,309.363617 
	C175.459854,310.200500 177.925079,309.761047 180.316803,307.242584 
	C185.821075,301.446686 191.682709,295.989227 197.162460,290.171387 
	C199.930939,287.232117 201.933731,286.919830 204.854279,290.063385 
	C210.292526,295.916962 216.163376,301.366180 221.726059,307.107788 
	C224.097031,309.555023 226.604538,310.068176 229.849289,309.226379 
	C249.166351,304.214539 268.501221,299.269165 287.865509,294.443420 
	C291.523376,293.531799 293.454559,291.642487 294.379150,287.942352 
	C299.216644,268.583801 304.217590,249.265701 309.249023,229.956299 
	C310.138947,226.541016 309.503754,223.877914 306.925049,221.385605 
	C301.176422,215.829605 295.696960,209.993332 289.902557,204.487244 
	C287.213959,201.932419 287.209473,200.051575 289.863983,197.505066 
	C295.632294,191.971375 301.070251,186.090454 306.897095,180.621933 
	C309.731720,177.961563 310.139130,175.337067 309.178253,171.719711 
	C304.311401,153.398178 299.436462,135.072388 295.065948,116.629242 
	C293.733337,111.005684 291.335632,107.649689 284.714600,106.941994 
z"/>
<path fill="#000000" opacity="1.000000" stroke="none" 
	d="
M178.567322,191.433777 
	C188.089401,200.981918 188.092163,200.984680 178.629120,210.467133 
	C174.987885,214.115829 171.256027,217.677795 167.709854,221.416245 
	C165.677963,223.558334 164.061447,223.718475 161.920105,221.513901 
	C156.128647,215.551407 150.233841,209.686783 144.281845,203.884064 
	C142.121445,201.777817 142.222885,200.101028 144.326416,198.034485 
	C150.137604,192.325546 155.916168,186.578323 161.541443,180.687546 
	C164.031586,178.079849 165.886581,178.496262 168.137604,180.909225 
	C171.425110,184.433228 174.915527,187.767929 178.567322,191.433777 
z"/>
<path fill="#000000" opacity="1.000000" stroke="none" 
	d="
M205.901123,255.888245 
	C200.904022,260.590149 200.888458,260.605713 196.213638,255.931870 
	C191.033127,250.752426 185.960632,245.462128 180.687607,240.379349 
	C178.384354,238.159195 178.225845,236.485992 180.610428,234.200226 
	C186.498230,228.556396 192.280991,222.797897 197.960434,216.944275 
	C200.247269,214.587296 201.954880,214.767120 204.153885,217.034500 
	C209.833191,222.890488 215.594482,228.672089 221.474945,234.325363 
	C223.865494,236.623566 223.656311,238.287888 221.365585,240.482452 
	C216.196899,245.434265 211.210251,250.576065 205.901123,255.888245 
z"/>
<path fill="#000000" opacity="1.000000" stroke="none" 
	d="
M194.945724,182.068085 
	C190.113617,177.233612 185.608719,172.569168 180.920868,168.096481 
	C178.515274,165.801300 178.171066,163.988083 180.754761,161.515121 
	C186.515579,156.001190 192.145416,150.344452 197.678284,144.601074 
	C200.068970,142.119400 201.917755,142.140503 204.302704,144.606369 
	C209.962540,150.458191 215.728439,156.212433 221.596405,161.855392 
	C223.842194,164.015045 223.612228,165.588104 221.507584,167.622284 
	C216.489624,172.472275 211.611816,177.467224 206.672928,182.399139 
	C201.013489,188.050613 201.011414,188.048523 194.945724,182.068085 
z"/>
<path fill="#000000" opacity="1.000000" stroke="none" 
	d="
M259.131317,202.262604 
	C252.735245,208.820374 246.476929,215.037140 240.378174,221.406677 
	C238.096176,223.790009 236.370453,223.591766 234.174042,221.327179 
	C228.612808,215.593353 222.962540,209.942230 217.225784,204.384048 
	C214.861343,202.093201 214.459595,200.301270 217.074265,197.808472 
	C222.974442,192.183258 228.658249,186.330429 234.404648,180.544937 
	C236.119263,178.818649 237.734695,177.847885 239.872665,180.041183 
	C246.029510,186.357452 252.265594,192.596420 258.455933,198.880127 
	C259.294250,199.731094 259.984192,200.682495 259.131317,202.262604 
z"/>
<path fill="#000000" opacity="1.000000" stroke="none" 
	d="
M146.353973,231.651627 
	C148.049896,233.681198 150.178055,234.929016 150.779541,236.949402 
	C141.217392,246.419098 131.818222,255.727402 122.122864,265.329010 
	C121.717125,265.300415 121.322647,264.438171 121.134209,263.713440 
	C118.416130,253.259918 115.784210,242.784012 113.069473,232.329605 
	C112.527016,230.240631 113.400223,228.808624 114.772163,227.455780 
	C118.327568,223.949936 121.948280,220.505310 125.387581,216.888519 
	C127.615425,214.545685 129.392563,214.626266 131.616791,216.935730 
	C136.349579,221.849960 141.261597,226.591568 146.353973,231.651627 
z"/>
<path fill="#000000" opacity="1.000000" stroke="none" 
	d="
M256.589966,119.221130 
	C259.808868,120.162064 262.904663,120.268349 265.245026,122.281296 
	C265.375336,123.957703 264.237946,124.804588 263.322479,125.721832 
	C255.677490,133.381821 247.945358,140.956146 240.382660,148.696182 
	C238.122711,151.009125 236.489792,151.063644 234.228043,148.723373 
	C228.559647,142.858170 222.758148,137.118225 216.900879,131.440643 
	C214.564789,129.176254 214.833435,127.581001 217.025909,125.246132 
	C229.323517,112.149818 229.263687,112.099785 246.537704,116.644463 
	C249.752502,117.490250 252.982330,118.278816 256.589966,119.221130 
z"/>
<path fill="#000000" opacity="1.000000" stroke="none" 
	d="
M164.246262,251.191910 
	C170.258179,253.881912 173.504318,259.361816 178.107986,263.347046 
	C180.236084,265.189240 181.902588,267.590546 184.114731,269.304169 
	C188.129242,272.414001 186.800690,274.427307 184.082214,278.008301 
	C176.578293,287.893036 168.129684,290.907379 156.372620,285.693665 
	C150.165894,282.941223 143.141602,282.032410 135.321014,279.986328 
	C145.483337,269.788879 154.691635,260.548737 164.246262,251.191910 
z"/>
<path fill="#000000" opacity="1.000000" stroke="none" 
	d="
M231.951035,288.969727 
	C226.546829,288.360565 224.483719,283.855164 221.367371,280.857178 
	C212.601151,272.423950 213.038940,274.592407 221.085373,266.341217 
	C226.277908,261.016510 231.650269,255.867203 236.602173,250.975052 
	C246.459030,260.816925 255.817551,270.161194 265.663940,279.992615 
	C254.764084,283.741791 243.434235,285.910248 231.951035,288.969727 
z"/>
<path fill="#000000" opacity="1.000000" stroke="none" 
	d="
M147.248535,169.246262 
	C141.816254,174.661713 136.529800,179.726242 131.490768,185.025986 
	C129.216705,187.417694 127.446281,187.486389 125.356438,185.040771 
	C124.386856,183.906113 123.409081,182.686676 122.190376,181.871338 
	C113.249786,175.889954 111.752640,168.197647 115.739693,158.431549 
	C118.596222,151.434631 119.059326,143.604950 122.014244,136.479202 
	C125.163643,137.223877 126.629707,139.602707 128.468063,141.409058 
	C134.872498,147.702042 140.996338,154.291824 147.583221,160.383408 
	C151.132202,163.665512 151.415695,166.155380 147.248535,169.246262 
z"/>
<path fill="#000000" opacity="1.000000" stroke="none" 
	d="
M281.008484,263.379364 
	C279.977448,266.106384 278.682098,265.734772 277.213440,264.266144 
	C268.978912,256.031677 260.740784,247.800827 252.506866,239.565735 
	C251.131516,238.190201 250.793762,236.776169 252.322891,235.249939 
	C258.680389,228.904526 265.035339,222.556488 271.369873,216.188187 
	C273.058533,214.490494 274.510956,214.857498 276.050232,216.422836 
	C279.782654,220.218369 283.527740,224.003540 287.353455,227.704224 
	C289.148773,229.440872 289.275848,231.232910 288.651855,233.574783 
	C286.043060,243.365631 283.629211,253.208420 281.008484,263.379364 
z"/>
<path fill="#000000" opacity="1.000000" stroke="none" 
	d="
M148.940796,136.059219 
	C144.687866,131.438431 139.977814,127.702995 136.545227,123.026520 
	C137.502579,121.248817 138.816040,120.989342 140.104813,120.663162 
	C149.618942,118.255188 159.149078,115.906860 168.630661,113.376701 
	C170.989716,112.747192 172.787811,112.979897 174.500153,114.766357 
	C178.074310,118.495178 181.677475,122.201439 185.398514,125.782097 
	C187.404800,127.712692 187.430542,129.269363 185.430710,131.208939 
	C179.330856,137.124985 173.271225,143.084747 167.305023,149.135040 
	C165.312485,151.155655 163.770386,151.041611 161.873886,149.078690 
	C157.705811,144.764633 153.425873,140.558655 148.940796,136.059219 
z"/>
<path fill="#000000" opacity="1.000000" stroke="none" 
	d="
M269.792816,184.285721 
	C264.143677,178.618332 258.753693,173.200241 253.351471,167.794418 
	C251.738846,166.180710 250.254364,164.636993 252.537857,162.385590 
	C261.052551,153.990555 269.526825,145.554504 278.035797,137.153610 
	C278.362976,136.830582 278.890900,136.710846 279.361389,136.478561 
	C281.583710,138.024872 281.438385,140.593674 282.003998,142.700912 
	C284.324005,151.344345 286.297699,160.080566 288.603912,168.727936 
	C289.249481,171.148590 288.776337,172.876221 287.078522,174.550400 
	C283.648407,177.932770 280.158173,181.267929 276.931061,184.838013 
	C274.334137,187.710938 272.226379,187.294510 269.792816,184.285721 
z"/>
</svg>