<?xml version="1.0" standalone="no"?>
<!DOCTYPE svg PUBLIC "-//W3C//DTD SVG 20010904//EN"
 "http://www.w3.org/TR/2001/REC-SVG-20010904/DTD/svg10.dtd">
<svg version="1.0" xmlns="http://www.w3.org/2000/svg"
 width="399.000000pt" height="399.000000pt" viewBox="0 0 399.000000 399.000000"
 preserveAspectRatio="xMidYMid meet">

<g transform="translate(0.000000,399.000000) scale(0.100000,-0.100000)"
fill="#000000" stroke="none">
<path d="M0 1995 l0 -1995 1995 0 1995 0 0 1995 0 1995 -1995 0 -1995 0 0
-1995z m1882 978 l118 -118 118 118 119 118 343 -88 344 -89 89 -344 88 -343
-118 -119 -118 -118 118 -118 118 -119 -88 -344 -89 -343 -344 -89 -343 -88
-119 118 -118 118 -118 -118 -119 -118 -343 88 -344 89 -89 344 -88 343 118
119 118 118 -118 118 -118 119 88 344 89 343 335 87 c184 48 338 88 344 88 5
1 63 -52 127 -116z"/>
<path d="M1540 2825 c-91 -23 -171 -43 -178 -46 -7 -2 50 -66 131 -147 l142
-142 113 113 112 112 -77 76 -78 76 -165 -42z"/>
<path d="M2217 2792 l-77 -77 113 -113 112 -112 143 143 144 144 -164 42 c-90
23 -170 44 -178 47 -10 2 -46 -27 -93 -74z"/>
<path d="M1210 2635 c0 -6 -20 -86 -45 -180 l-45 -170 78 -78 77 -77 113 113
112 112 -145 145 c-80 80 -145 140 -145 135z"/>
<path d="M2642 2497 l-142 -142 113 -113 112 -112 77 77 77 78 -44 168 c-24
92 -45 172 -47 178 -2 5 -67 -55 -146 -134z"/>
<path d="M1885 2460 l-110 -110 113 -113 112 -112 112 112 113 113 -110 110
c-60 60 -112 110 -115 110 -3 0 -55 -50 -115 -110z"/>
<path d="M1525 2100 l-110 -110 113 -113 112 -112 112 112 113 113 -110 110
c-60 60 -112 110 -115 110 -3 0 -55 -50 -115 -110z"/>
<path d="M2245 2100 l-110 -110 113 -112 112 -113 110 110 c61 60 109 113 108
116 -7 17 -203 219 -212 219 -6 0 -61 -50 -121 -110z"/>
<path d="M1198 1773 l-77 -78 44 -168 c24 -93 45 -172 47 -178 2 -5 67 55 146
134 l142 142 -113 113 -112 112 -77 -77z"/>
<path d="M1885 1740 l-110 -110 113 -113 112 -112 112 112 113 113 -110 110
c-60 60 -112 110 -115 110 -3 0 -55 -50 -115 -110z"/>
<path d="M2612 1737 l-112 -112 143 -143 143 -143 47 178 46 178 -77 78 -77
77 -113 -113z"/>
<path d="M1492 1347 l-143 -143 177 -46 178 -46 60 55 c110 102 111 83 -17
211 l-112 112 -143 -143z"/>
<path d="M2252 1377 l-112 -112 77 -77 78 -77 168 44 c92 24 172 45 178 47 5
2 -55 67 -134 146 l-142 142 -113 -113z"/>
</g>
</svg>
